<svg xmlns="http://www.w3.org/2000/svg" width="24.127" height="23.001" viewBox="0 0 24.127 23.001">
  <g id="Grupo_26303" data-name="Grupo 26303" transform="translate(16739.773 -4669.088)">
    <g id="icono-shopping-bag-ppal" transform="translate(-16739.273 4669.588)">
      <path id="Sustracci贸n_7" data-name="Sustracci贸n 7" d="M19875.137-8847.644h-14a3,3,0,0,1-3-3v-14a.946.946,0,0,1,.205-.6l3-4a1.007,1.007,0,0,1,.8-.4h12a1.009,1.009,0,0,1,.8.4l3,4a.989.989,0,0,1,.2.6v8.91h-.7v-1.173a.58.58,0,0,0-.154-.425.558.558,0,0,0-.4-.184h-.018a.579.579,0,0,0-.582.563v1.218h-.15v-8.581l-2.5-3.333h-11l-2.5,3.333v13.67a1,1,0,0,0,1,1h14a1,1,0,0,0,1-1v-3.912h.15v1.173a.577.577,0,0,0,.578.563h.021a.58.58,0,0,0,.553-.563v-1.173h.7v3.912A3,3,0,0,1,19875.137-8847.644Z" transform="translate(-19858.133 8869.645)" fill="#006e7a" stroke="rgba(0,0,0,0)" stroke-width="1"/>
      <path id="Trazado_28281" data-name="Trazado 28281" d="M425.016,547.172h-18a1,1,0,0,1,0-2h18a1,1,0,0,1,0,2" transform="translate(-406.014 -541.17)" fill="#006e7a"/>
      <path id="Trazado_28282" data-name="Trazado 28282" d="M416.016,555.172a5.006,5.006,0,0,1-5-5,1,1,0,0,1,2,0,3,3,0,0,0,6,0,1,1,0,0,1,2,0,5.006,5.006,0,0,1-5,5" transform="translate(-406.014 -541.17)" fill="#006e7a"/>
    </g>
    <path id="Sustracci贸n_6" data-name="Sustracci贸n 6" d="M3123.264-4191.095a4.446,4.446,0,0,1-4.4-4.48,4.444,4.444,0,0,1,4.4-4.478,4.445,4.445,0,0,1,4.4,4.478A4.445,4.445,0,0,1,3123.264-4191.095Zm-1.731-5.044a.567.567,0,0,0-.4.183.587.587,0,0,0-.156.425.584.584,0,0,0,.554.565h1.153v1.173a.581.581,0,0,0,.577.566h.021a.587.587,0,0,0,.556-.566v-1.173h1.152a.584.584,0,0,0,.555-.609.584.584,0,0,0-.555-.564h-1.152v-1.174a.586.586,0,0,0-.556-.609h-.021a.581.581,0,0,0-.577.567.315.315,0,0,0,0,.043v1.174Z" transform="translate(-19843.809 8879.643)" fill="#006e7a" stroke="rgba(0,0,0,0)" stroke-width="1"/>
  </g>
</svg>
