<svg xmlns="http://www.w3.org/2000/svg" width="23.125" height="22" viewBox="0 0 23.125 22">
  <g id="Grupo_26303" data-name="Grupo 26303" transform="translate(16739.271 -4669.59)">
    <g id="icono-shopping-bag-ppal" transform="translate(-16739.271 4669.59)">
      <path id="Trazado_28280" data-name="Trazado 28280" d="M423.016,563.172h-14a3,3,0,0,1-3-3v-14a1,1,0,0,1,.2-.6l3-4a1,1,0,0,1,.8-.4h12a1,1,0,0,1,.8.4l3,4a1,1,0,0,1,.2.6v14a3,3,0,0,1-3,3m-15-16.667v13.667a1,1,0,0,0,1,1h14a1,1,0,0,0,1-1V546.505l-2.5-3.333h-11Z" transform="translate(-406.016 -541.172)" fill="#da291c"/>
      <path id="Trazado_28281" data-name="Trazado 28281" d="M425.016,547.172h-18a1,1,0,0,1,0-2h18a1,1,0,0,1,0,2" transform="translate(-406.016 -541.172)" fill="#da291c"/>
      <path id="Trazado_28282" data-name="Trazado 28282" d="M416.016,555.172a5.006,5.006,0,0,1-5-5,1,1,0,0,1,2,0,3,3,0,0,0,6,0,1,1,0,0,1,2,0,5.006,5.006,0,0,1-5,5" transform="translate(-406.016 -541.172)" fill="#da291c"/>
    </g>
    <path id="Trazado_38660" data-name="Trazado 38660" d="M20.633,24.091a4.48,4.48,0,1,0-4.4-4.48,4.441,4.441,0,0,0,4.4,4.48" transform="translate(-16741.178 4664.457)" fill="#da291c"/>
    <path id="Trazado_38661" data-name="Trazado 38661" d="M24.51,21.134H23.356V19.96a.577.577,0,1,0-1.153-.043c0,.015,0,.029,0,.043v1.174H21.05a.588.588,0,0,0,0,1.174H22.2v1.173a.577.577,0,0,0,1.153,0V22.308h1.153a.588.588,0,0,0,0-1.174" transform="translate(-16743.326 4662.369)" fill="#ffffff"/>
  </g>
</svg>
