<svg xmlns="http://www.w3.org/2000/svg" width="24.127" height="23" viewBox="0 0 24.127 23">
  <g id="Grupo_25759" data-name="Grupo 25759" transform="translate(-690 19772.602)">
    
    <g id="Icono_Nav_help-circle" transform="translate(689 -19772.602)">
      <rect id="Rectángulo_13735" data-name="Rectángulo 13735" width="25" height="25" fill="#3c3c3c" opacity="0"/>
      <g id="Grupo_38786" data-name="Grupo 38786" transform="translate(1.042 1.042)">
        <path id="Trazado_28107" data-name="Trazado 28107" d="M370.6,313.832a11.458,11.458,0,1,1,11.458-11.458A11.459,11.459,0,0,1,370.6,313.832m0-20.833a9.375,9.375,0,1,0,9.375,9.375A9.374,9.374,0,0,0,370.6,293" transform="translate(-359.143 -290.915)" fill="#3c3c3c"/>
        <path id="Trazado_28108" data-name="Trazado 28108" d="M370.223,304.249a1.042,1.042,0,0,1-.329-2.03c.625-.208,2.413-1.06,2.413-2.137a2.083,2.083,0,0,0-4.049-.7,1.042,1.042,0,0,1-1.975-.665l.01-.028a4.167,4.167,0,0,1,8.1,1.39c0,2.753-3.445,3.98-3.838,4.111a1.043,1.043,0,0,1-.329.054" transform="translate(-358.848 -290.707)" fill="#3c3c3c"/>
        <path id="Trazado_28109" data-name="Trazado 28109" d="M370.195,308a1.042,1.042,0,0,1-.01-2.083h.01a1.042,1.042,0,0,1,0,2.083" transform="translate(-358.726 -290.29)" fill="#3c3c3c"/>
      </g>
    </g>
  </g>
</svg>
