<svg id="icono-principal-Red_banda_ancha" data-name="icono-principal-Red banda ancha" xmlns="http://www.w3.org/2000/svg" xmlns:xlink="http://www.w3.org/1999/xlink" width="22.289" height="33.465" viewBox="0 0 22.289 33.465">
  <defs>
    <clipPath id="clip-path">
      <rect id="Rectángulo_13021" data-name="Rectángulo 13021" width="22.289" height="33.465" transform="translate(0 0)" fill="none"/>
    </clipPath>
  </defs>
  <g id="Grupo_26303" data-name="Grupo 26303" transform="translate(0 0)" clip-path="url(#clip-path)">
    <path id="Trazado_38623" data-name="Trazado 38623" d="M20.039,9.6H18.7V2.25A2.253,2.253,0,0,0,16.455,0H5.833a2.253,2.253,0,0,0-2.25,2.25V9.6H2.25A2.253,2.253,0,0,0,0,11.85v5.557a2.258,2.258,0,0,0,.314,1.147L2.87,22.866a2.26,2.26,0,0,0,1.935,1.1H6.13v1.95A2.247,2.247,0,0,0,8.1,28.141v3.074a2.253,2.253,0,0,0,2.25,2.25h1.582a2.253,2.253,0,0,0,2.25-2.25V28.141a2.247,2.247,0,0,0,1.974-2.222v-1.95h1.325a2.261,2.261,0,0,0,1.936-1.1l2.556-4.313a2.254,2.254,0,0,0,.313-1.146V11.85a2.253,2.253,0,0,0-2.25-2.25M5.083,2.25a.752.752,0,0,1,.75-.75H16.455a.752.752,0,0,1,.75.75V9.6H5.083Zm6.852,29.715H10.353a.752.752,0,0,1-.75-.75V28.169h3.082v3.046a.751.751,0,0,1-.75.75m2.724-6.046a.752.752,0,0,1-.75.75H8.38a.752.752,0,0,1-.75-.75v-1.95h7.029Zm6.13-8.512a.748.748,0,0,1-.1.382L18.129,22.1a.752.752,0,0,1-.645.368H4.8A.751.751,0,0,1,4.16,22.1L1.6,17.789a.751.751,0,0,1-.1-.382V11.85a.751.751,0,0,1,.75-.75H20.039a.752.752,0,0,1,.75.75Z" fill="#187385"/>
    <path id="Trazado_38624" data-name="Trazado 38624" d="M11.956,14.659H10.333a1.74,1.74,0,0,1-1.677-1.8V7.839a1.74,1.74,0,0,1,1.677-1.8h1.623a1.74,1.74,0,0,1,1.677,1.8v5.024a1.74,1.74,0,0,1-1.677,1.8" fill="#e03224"/>
  </g>
</svg>
