<svg xmlns="http://www.w3.org/2000/svg" width="21.516" height="21.569" viewBox="0 0 21.516 21.569">
  <g id="Grupo_26243" data-name="Grupo 26243" transform="translate(-167 -427.999)">
    <g id="Grupo_19340" data-name="Grupo 19340" transform="translate(167 427.999)">
      <path id="Trazado_33381" data-name="Trazado 33381" d="M369.451,397.779,371,392.01a10.678,10.678,0,1,1,4.253,4.216Zm6.088-3.715.365.217a8.666,8.666,0,1,0-2.966-2.939l.224.368-.863,3.222Z" transform="translate(-369.451 -376.21)" fill="#404040"/>
      <path id="Trazado_33382" data-name="Trazado 33382" d="M384.149,388.172a1.816,1.816,0,0,0-1.548-.349c-.4.165-.66.794-.919,1.115a.386.386,0,0,1-.5.108,7.008,7.008,0,0,1-3.5-3,.43.43,0,0,1,.053-.586,2.357,2.357,0,0,0,.636-1.032,2.258,2.258,0,0,0-.284-1.221,2.9,2.9,0,0,0-.9-1.36,1.236,1.236,0,0,0-1.342.2,2.723,2.723,0,0,0-.945,2.159,3.034,3.034,0,0,0,.085.685,5.691,5.691,0,0,0,.656,1.514,11.9,11.9,0,0,0,.686,1.043,10.588,10.588,0,0,0,2.976,2.763,8.934,8.934,0,0,0,1.855.882,4.121,4.121,0,0,0,2.16.342,2.615,2.615,0,0,0,1.958-1.456,1.264,1.264,0,0,0,.091-.744C385.256,388.724,384.563,388.42,384.149,388.172Z" transform="translate(-369.266 -376.013)" fill="#404040" fill-rule="evenodd"/>
    </g>
  </g>
</svg>
