<svg xmlns="http://www.w3.org/2000/svg" width="22.893" height="22.863" viewBox="0 0 22.893 22.863">
  <g id="Grupo_23791" data-name="Grupo 23791" transform="translate(0.5 0.5)">
    <g id="Grupo_15129" data-name="Grupo 15129" transform="translate(0 0)">
      <path id="Trazado_25542" data-name="Trazado 25542" d="M6.166,8.455A4.826,4.826,0,1,1,1.34,13.281,4.831,4.831,0,0,1,6.166,8.455m0-1.34a6.166,6.166,0,1,0,6.166,6.166A6.166,6.166,0,0,0,6.166,7.115" transform="translate(0 2.416)" fill="#e03224" stroke="#df3224" stroke-width="1"/>
      <line id="Línea_226" data-name="Línea 226" x2="6.17" transform="translate(15.053 13.804)" fill="#616160" stroke="#df3224" stroke-width="1"/>
      <path id="Trazado_25543" data-name="Trazado 25543" d="M17.578,11.145h-6.17a.67.67,0,1,1,0-1.34h6.17a.67.67,0,0,1,0,1.34" transform="translate(3.646 3.329)" fill="#e03224" stroke="#df3224" stroke-width="1"/>
      <line id="Línea_227" data-name="Línea 227" y1="6.17" transform="translate(8.059 0.67)" fill="#616160" stroke="#df3224" stroke-width="1"/>
      <path id="Trazado_25544" data-name="Trazado 25544" d="M6.186,7.509a.67.67,0,0,1-.67-.67V.67a.67.67,0,0,1,1.34,0V6.84a.67.67,0,0,1-.67.67" transform="translate(1.873)" fill="#e03224" stroke="#df3224" stroke-width="1"/>
      <line id="Línea_228" data-name="Línea 228" y1="5.361" x2="5.361" transform="translate(12.754 3.748)" fill="#616160" stroke="#df3224" stroke-width="1"/>
      <path id="Trazado_25545" data-name="Trazado 25545" d="M9.692,9a.67.67,0,0,1-.474-1.144l5.359-5.359a.67.67,0,0,1,.947.947L10.166,8.8a.673.673,0,0,1-.474.2" transform="translate(3.063 0.78)" fill="#e03224" stroke="#df3224" stroke-width="1"/>
    </g>
  </g>
</svg>
