<svg id="icono-x-ppal" xmlns="http://www.w3.org/2000/svg" width="14" height="13.987" viewBox="0 0 14 13.987">
  <path id="Trazado_28441" data-name="Trazado 28441" d="M365.016,654.2a1,1,0,0,1-.707-1.707l12-12a1,1,0,0,1,1.407,1.407l-12,12a1,1,0,0,1-.707.293" transform="translate(-364.016 -640.213)" fill="#df3224"/>
  <path id="Trazado_28442" data-name="Trazado 28442" d="M377.016,654.2a1,1,0,0,1-.707-.293l-12-12a1,1,0,0,1,1.414-1.414l12,12a1,1,0,0,1-.707,1.707" transform="translate(-364.016 -640.213)" fill="#df3224"/>
</svg>
