<svg id="icono-principal-consumo" xmlns="http://www.w3.org/2000/svg" xmlns:xlink="http://www.w3.org/1999/xlink" width="35.062" height="30.343" viewBox="0 0 35.062 30.343">
  <defs>
    <clipPath id="clip-path">
      <rect id="Rectángulo_12665" data-name="Rectángulo 12665" width="35.062" height="30.343" transform="translate(0 0)" fill="none"/>
    </clipPath>
  </defs>
  <g id="Grupo_25478" data-name="Grupo 25478" transform="translate(0 0)">
    <g id="Grupo_25477" data-name="Grupo 25477" clip-path="url(#clip-path)">
      <path id="Trazado_38580" data-name="Trazado 38580" d="M32.437,18.4a2.577,2.577,0,0,0-2.577,2.577,2.542,2.542,0,0,0,.261,1.123l-3.143,3.213a.389.389,0,0,0-.087.122A2.528,2.528,0,0,0,25.8,25.19a2.615,2.615,0,0,0-1.167.279.381.381,0,0,0-.052-.061l-3.6-3.4a.558.558,0,0,0-.113-.087A2.582,2.582,0,1,0,16,21.459a.206.206,0,0,0-.061.035L12.1,24.141a.34.34,0,0,0-.1.1h-.009a2.568,2.568,0,0,0-3.59.55,2.506,2.506,0,0,0-.21.338.632.632,0,0,0-.122-.035l-2.777-.47a.477.477,0,0,0-.192,0A2.562,2.562,0,1,0,4.9,26.313a.388.388,0,0,0,.1.026l2.769.47a1.048,1.048,0,0,0,.148.017h.026a2.576,2.576,0,0,0,5.1-.5,2.8,2.8,0,0,0-.087-.67.873.873,0,0,0,.122-.07l3.848-2.647.017-.017a2.545,2.545,0,0,0,2.743.252.567.567,0,0,0,.1.113l3.6,3.4a.243.243,0,0,0,.052.044,2.577,2.577,0,1,0,4.936,1.036,2.462,2.462,0,0,0-.27-1.132.65.65,0,0,0,.122-.1l3.134-3.213A2.578,2.578,0,1,0,32.449,18.4h-.012" fill="#187385"/>
      <path id="Trazado_38581" data-name="Trazado 38581" d="M32.437.011A2.575,2.575,0,0,0,29.86,2.579a2.519,2.519,0,0,0,.287,1.175c-.026.017-.044.035-.07.052L26.934,6.663a.567.567,0,0,0-.1.113,2.511,2.511,0,0,0-1.219-.313,2.547,2.547,0,0,0-1.942.888l-2.737-1.64a.523.523,0,0,0-.183-.07V5.635a2.246,2.246,0,0,0,.026-.348,2.577,2.577,0,1,0-4.865,1.184,1.049,1.049,0,0,0-.1.1l-3.552,3.77c-.035.035-.061.078-.1.113a2.663,2.663,0,0,0-1.027-.209A2.569,2.569,0,0,0,8.575,12.6c-.009-.009-.026,0-.044,0l-3.578.453a.432.432,0,0,0-.113.026,2.578,2.578,0,1,0,.274,1.7h.061l3.57-.461a.8.8,0,0,0,.244-.07,2.575,2.575,0,0,0,4.725-1.428,2.523,2.523,0,0,0-.3-1.193.567.567,0,0,0,.113-.1l3.544-3.77a.944.944,0,0,0,.087-.113,2.6,2.6,0,0,0,2.821-.488.508.508,0,0,0,.07.052L22.826,8.86a.707.707,0,0,0,.226.087.318.318,0,0,0-.009.087,2.573,2.573,0,0,0,5.146,0h0a2.528,2.528,0,0,0-.2-.993.65.65,0,0,0,.122-.1l3.143-2.856a.845.845,0,0,0,.139-.165,2.464,2.464,0,0,0,1.045.226,2.573,2.573,0,0,0,0-5.146h0" fill="#187385"/>
      <path id="Trazado_38582" data-name="Trazado 38582" d="M13.742,12.82A2.646,2.646,0,1,1,11.1,10.174a2.646,2.646,0,0,1,2.646,2.646" fill="#da291c"/>
      <path id="Trazado_38583" data-name="Trazado 38583" d="M28.178,8.988a2.646,2.646,0,1,1-2.646-2.646,2.646,2.646,0,0,1,2.646,2.646" fill="#da291c"/>
      <path id="Trazado_38584" data-name="Trazado 38584" d="M5.292,25.151A2.646,2.646,0,1,1,2.646,22.5a2.646,2.646,0,0,1,2.646,2.646" fill="#da291c"/>
      <path id="Trazado_38585" data-name="Trazado 38585" d="M21.124,20.853a2.591,2.591,0,1,1-2.59-2.59,2.591,2.591,0,0,1,2.59,2.59" fill="#da291c"/>
      <path id="Trazado_38586" data-name="Trazado 38586" d="M35.062,20.979a2.59,2.59,0,1,1-2.59-2.59,2.59,2.59,0,0,1,2.59,2.59" fill="#da291c"/>
    </g>
  </g>
</svg>
