<svg id="icono-principal-detalle-de-tu-plan" xmlns="http://www.w3.org/2000/svg" xmlns:xlink="http://www.w3.org/1999/xlink" width="33.488" height="35" viewBox="0 0 33.488 35">
  <defs>
    <clipPath id="clip-path">
      <rect id="Rectángulo_11475" data-name="Rectángulo 11475" width="33.488" height="35" fill="none"/>
    </clipPath>
  </defs>
  <g id="Grupo_22060" data-name="Grupo 22060" clip-path="url(#clip-path)">
    <path id="Trazado_35669" data-name="Trazado 35669" d="M9.708,10.912A7.9,7.9,0,0,0,3.527,23.787L.258,27.056A.883.883,0,0,0,1.507,28.3l3.268-3.269A7.928,7.928,0,1,0,9.708,10.912m0,14.12a6.148,6.148,0,0,1-4.3-1.753c-.017-.02-.022-.045-.041-.064a.766.766,0,0,0-.079-.054,6.17,6.17,0,1,1,4.419,1.871" transform="translate(0 -2.237)" fill="#da291c"/>
    <path id="Trazado_35670" data-name="Trazado 35670" d="M35.195,12.115a1.593,1.593,0,0,0-.334-.512L23.977.466A1.552,1.552,0,0,0,22.877,0H13.584A4.72,4.72,0,0,0,8.92,4.773V8.138a9,9,0,0,1,1.67-.355v-3.8c0-.949.742-2.4,3.578-2.4l7.553.017V12.344a1.734,1.734,0,0,0,1.59,1.719H33.667l-.021,16.952A2.945,2.945,0,0,1,31.4,33.4l-.138,0H13.77a3.368,3.368,0,0,1-3.18-3.18V25.479a8.737,8.737,0,0,1-1.67-.374v5.122A4.719,4.719,0,0,0,13.584,35H30.652a4.719,4.719,0,0,0,4.664-4.773v-17.5a1.618,1.618,0,0,0-.122-.613m-11.886.361,0-10.081,9.8,10.081Z" transform="translate(-1.828 0)" fill="#187385"/>
  </g>
</svg>
