<svg id="icono-edit-ppal" xmlns="http://www.w3.org/2000/svg" width="22.12" height="22.092" viewBox="0 0 22.12 22.092">
  <path id="Trazado_28054" data-name="Trazado 28054" d="M554.916,216.122h-14a3,3,0,0,1-3-3v-14a3,3,0,0,1,3-3h7a1,1,0,0,1,0,2h-7a1,1,0,0,0-1,1v14a1,1,0,0,0,1,1h14a1,1,0,0,0,1-1v-7a1,1,0,0,1,2,0v7a3,3,0,0,1-3,3" transform="translate(-537.916 -194.03)" fill="#187385"/>
  <path id="Trazado_28055" data-name="Trazado 28055" d="M544.916,210.122a1,1,0,0,1-.97-1.243l1-4a1,1,0,0,1,.263-.464l9.5-9.5a3.194,3.194,0,0,1,4.414,0,3.125,3.125,0,0,1,0,4.414l-9.5,9.5a1,1,0,0,1-.465.263l-4,1a.984.984,0,0,1-.242.03m1.9-4.489-.529,2.114,2.114-.528,9.3-9.3a1.125,1.125,0,0,0,0-1.586,1.148,1.148,0,0,0-1.586,0Z" transform="translate(-537.916 -194.03)" fill="#187385"/>
</svg>
