<svg id="icono-principal-equipos-financiados" xmlns="http://www.w3.org/2000/svg" xmlns:xlink="http://www.w3.org/1999/xlink" width="35" height="30.746" viewBox="0 0 35 30.746">
  <defs>
    <clipPath id="clip-path">
      <rect id="Rectángulo_11478" data-name="Rectángulo 11478" width="35" height="30.746" fill="none"/>
    </clipPath>
  </defs>
  <g id="Grupo_22066" data-name="Grupo 22066" clip-path="url(#clip-path)">
    <path id="Trazado_35676" data-name="Trazado 35676" d="M26.173,0h-11.1a3.825,3.825,0,0,0-3.821,3.822v23.1a3.825,3.825,0,0,0,3.821,3.821h11.1a3.825,3.825,0,0,0,3.821-3.821V3.822A3.825,3.825,0,0,0,26.173,0m2.292,26.925a2.3,2.3,0,0,1-2.292,2.292h-11.1a2.3,2.3,0,0,1-2.293-2.292V3.822a2.3,2.3,0,0,1,2.293-2.293h.01a2.35,2.35,0,0,0,2.335,2.136h6.048A2.349,2.349,0,0,0,25.8,1.528h.376a2.3,2.3,0,0,1,2.292,2.293Z" transform="translate(-3.046 0)" fill="#187385"/>
    <path id="Trazado_35677" data-name="Trazado 35677" d="M41.75,2.635H37.268a3.976,3.976,0,0,1,.242,1.322V5.841h1.868a2.055,2.055,0,0,0,2.042-1.869h.329a2.007,2.007,0,0,1,2.006,2.006V26.194A2.009,2.009,0,0,1,41.75,28.2H37.51v.016a3.975,3.975,0,0,1-.242,1.321H41.75a3.347,3.347,0,0,0,3.343-3.343V5.978A3.347,3.347,0,0,0,41.75,2.635" transform="translate(-10.093 -0.714)" fill="#da291c"/>
    <path id="Trazado_35678" data-name="Trazado 35678" d="M7.733,28.2H3.343A2.009,2.009,0,0,1,1.337,26.2V5.979A2.009,2.009,0,0,1,3.343,3.973h.009A2.056,2.056,0,0,0,5.4,5.842H7.733V3.958a3.976,3.976,0,0,1,.242-1.322H3.343A3.347,3.347,0,0,0,0,5.979V26.2a3.347,3.347,0,0,0,3.343,3.343H7.975a3.976,3.976,0,0,1-.242-1.322Z" transform="translate(0 -0.714)" fill="#da291c"/>
  </g>
</svg>
