<svg id="Icono-fibra_optica" data-name="Icono-fibra optica" xmlns="http://www.w3.org/2000/svg" xmlns:xlink="http://www.w3.org/1999/xlink" width="25.757" height="32.424" viewBox="0 0 25.757 32.424">
  <defs>
    <clipPath id="clip-path">
      <rect id="Rectángulo_13020" data-name="Rectángulo 13020" width="25.757" height="32.424" transform="translate(0 0)" fill="none"/>
    </clipPath>
  </defs>
  <g id="Grupo_26302" data-name="Grupo 26302" transform="translate(0 0)">
    <g id="Grupo_26302-2" data-name="Grupo 26302" clip-path="url(#clip-path)">
      <path id="Trazado_38619" data-name="Trazado 38619" d="M21.052,5.036a2.834,2.834,0,0,0,1.841.689,2.862,2.862,0,1,0-2.862-2.862,2.816,2.816,0,0,0,.163.912c-1.181.691-5.147,3.548-5.862,10.869h-.685V5.61a2.864,2.864,0,1,0-1.519,0v9.034h-.841C10.745,7.46,7.123,4.393,5.664,3.449A2.9,2.9,0,1,0,4.957,4.8c1.264.852,4.311,3.56,4.81,9.88a2.346,2.346,0,0,0-2,2.314v1.474H5.113a2.707,2.707,0,0,0-2.76,2.644v8.669a2.707,2.707,0,0,0,2.76,2.643H20.655a2.707,2.707,0,0,0,2.76-2.643V21.112a2.707,2.707,0,0,0-2.76-2.644H18V16.994a2.345,2.345,0,0,0-2.146-2.329c.711-6.874,4.491-9.244,5.2-9.629m1.841-3.517a1.344,1.344,0,1,1-1.342,1.344,1.345,1.345,0,0,1,1.342-1.344M11.544,2.863a1.343,1.343,0,1,1,1.344,1.343,1.345,1.345,0,0,1-1.344-1.343M2.863,4.206A1.343,1.343,0,1,1,4.206,2.863,1.345,1.345,0,0,1,2.863,4.206M21.9,21.112v8.669a1.187,1.187,0,0,1-1.24,1.123H5.113a1.187,1.187,0,0,1-1.24-1.123V21.112a1.187,1.187,0,0,1,1.24-1.124H20.655a1.187,1.187,0,0,1,1.24,1.124m-5.6-4.118v1.474H9.47V16.994a.651.651,0,0,1,.65-.65h5.529a.651.651,0,0,1,.65.65" fill="#187385"/>
      <path id="Trazado_38620" data-name="Trazado 38620" d="M15.75,2.863A2.863,2.863,0,1,1,12.887,0,2.863,2.863,0,0,1,15.75,2.863" fill="#e03224"/>
      <path id="Trazado_38621" data-name="Trazado 38621" d="M5.726,2.863A2.862,2.862,0,1,1,2.863,0,2.863,2.863,0,0,1,5.726,2.863" fill="#e03224"/>
      <path id="Trazado_38622" data-name="Trazado 38622" d="M25.757,2.863A2.863,2.863,0,1,1,22.894,0a2.863,2.863,0,0,1,2.863,2.863" fill="#e03224"/>
    </g>
  </g>
</svg>
