<svg id="Componente_685_1" data-name="Componente 685 – 1" xmlns="http://www.w3.org/2000/svg" xmlns:xlink="http://www.w3.org/1999/xlink" width="29.886" height="31" viewBox="0 0 29.886 31">
  <defs>
    <clipPath id="clip-path">
      <rect id="Rectángulo_13018" data-name="Rectángulo 13018" width="29.886" height="31" fill="none"/>
    </clipPath>
  </defs>
  <g id="Grupo_26132" data-name="Grupo 26132" clip-path="url(#clip-path)">
    <path id="Trazado_38608" data-name="Trazado 38608" d="M7.3,7.288a.825.825,0,0,1-.587-.244L4.819,5.154A.83.83,0,0,1,5.993,3.981l1.89,1.89A.83.83,0,0,1,7.3,7.288" transform="translate(0.424 0.346)" fill="#da291c"/>
    <path id="Trazado_38609" data-name="Trazado 38609" d="M1.722,19.44a.83.83,0,0,1-.35-1.583L3.8,16.73a.83.83,0,1,1,.7,1.506L2.072,19.364a.828.828,0,0,1-.35.076" transform="translate(0.083 1.542)" fill="#da291c"/>
    <path id="Trazado_38610" data-name="Trazado 38610" d="M13.742,28.739h0a.829.829,0,0,1-.829-.831l0-2.674a.83.83,0,0,1,.83-.829h0a.829.829,0,0,1,.829.831l0,2.674a.83.83,0,0,1-.83.829" transform="translate(1.196 2.26)" fill="#da291c"/>
    <path id="Trazado_38611" data-name="Trazado 38611" d="M25.973,19.44a.828.828,0,0,1-.35-.076L23.2,18.235a.83.83,0,1,1,.7-1.506l2.425,1.128a.83.83,0,0,1-.35,1.583" transform="translate(2.104 1.542)" fill="#da291c"/>
    <path id="Trazado_38612" data-name="Trazado 38612" d="M20.353,7.288a.83.83,0,0,1-.587-1.417l1.89-1.89a.83.83,0,1,1,1.175,1.173L20.94,7.044a.825.825,0,0,1-.587.244" transform="translate(1.808 0.346)" fill="#da291c"/>
    <path id="Trazado_38613" data-name="Trazado 38613" d="M6.463,29.675a1.213,1.213,0,0,1-.7-.223,1.238,1.238,0,0,1-.507-1.22L6.774,19.02.357,12.5a1.244,1.244,0,0,1-.292-1.273,1.225,1.225,0,0,1,.979-.827L9.882,9.063,13.841.7a1.216,1.216,0,0,1,2.2,0h0L20,9.063l8.84,1.338a1.222,1.222,0,0,1,.977.826,1.244,1.244,0,0,1-.292,1.272L23.111,19.02l1.517,9.211a1.24,1.24,0,0,1-.507,1.22,1.2,1.2,0,0,1-1.281.072l-7.9-4.327-7.9,4.328a1.21,1.21,0,0,1-.582.15m8.48-6.2a1.206,1.206,0,0,1,.578.148l7.325,4.014-1.407-8.552a1.255,1.255,0,0,1,.338-1.075l5.994-6.088-8.248-1.251a1.218,1.218,0,0,1-.92-.685l-3.66-7.728L11.285,9.98a1.223,1.223,0,0,1-.923.689l-8.246,1.25,5.991,6.086a1.255,1.255,0,0,1,.341,1.075L7.04,27.635l7.322-4.013a1.23,1.23,0,0,1,.581-.149M20.1,9.27h0Z" transform="translate(0 0)" fill="#187385"/>
  </g>
</svg>
