<svg id="Grupo_26116" data-name="Grupo 26116" xmlns="http://www.w3.org/2000/svg" xmlns:xlink="http://www.w3.org/1999/xlink" width="28.531" height="32.997" viewBox="0 0 28.531 32.997">
  <defs>
    <clipPath id="clip-path">
      <rect id="Rectángulo_13013" data-name="Rectángulo 13013" width="28.531" height="32.997" transform="translate(0 0)" fill="none"/>
    </clipPath>
  </defs>
  <g id="Grupo_26116-2" data-name="Grupo 26116" clip-path="url(#clip-path)">
    <path id="Trazado_37862" data-name="Trazado 37862" d="M19.826,1.034A3.446,3.446,0,0,0,17.354,0H3.472A3.476,3.476,0,0,0,0,3.472V30.62a1.6,1.6,0,0,0,2.514,1.319l1.157-.8a.1.1,0,0,1,.115,0l2.26,1.456a1.6,1.6,0,0,0,1.674.039l2.4-1.395a.109.109,0,0,1,.105,0L13.083,32.9a.733.733,0,0,0,.375.1.75.75,0,0,0,.377-1.4l-2.862-1.659a1.611,1.611,0,0,0-1.609,0l-2.4,1.4a.1.1,0,0,1-.108,0L4.6,29.878a1.6,1.6,0,0,0-1.781.027l-1.156.8a.1.1,0,0,1-.107.007A.1.1,0,0,1,1.5,30.62V3.472A1.975,1.975,0,0,1,3.472,1.5H17.354a1.972,1.972,0,0,1,1.972,2l-.12,8.819a.749.749,0,0,0,.74.76h.01a.751.751,0,0,0,.75-.739l.12-8.819a3.449,3.449,0,0,0-1-2.486" fill="#187385"/>
    <path id="Trazado_37863" data-name="Trazado 37863" d="M16.563,5.329H4.78a.677.677,0,1,0,0,1.353H16.563a.677.677,0,1,0,0-1.353" fill="#187385"/>
    <path id="Trazado_37864" data-name="Trazado 37864" d="M16.563,8.929H4.78a.677.677,0,1,0,0,1.353H16.563a.677.677,0,1,0,0-1.353" fill="#187385"/>
    <path id="Trazado_37865" data-name="Trazado 37865" d="M4.779,12.538a.677.677,0,1,0,0,1.353h5.892a.677.677,0,0,0,0-1.353Z" fill="#187385"/>
    <path id="Trazado_37866" data-name="Trazado 37866" d="M28.414,21.672a8.554,8.554,0,0,0-7.68-7.241,8.56,8.56,0,0,0-9.167,6.637,1.43,1.43,0,0,1-.048.17,2.289,2.289,0,0,0-.3-.346.811.811,0,0,0-1.153,1.139c.446.467.931.954,1.529,1.533a.718.718,0,0,0,1.011.078c.563-.512,1.121-1.069,1.708-1.7a.726.726,0,0,0-.021-.971.791.791,0,0,0-.924-.248,6.746,6.746,0,0,1,5.941-4.632,6.775,6.775,0,0,1,5.658,2.126A6.935,6.935,0,0,1,16.11,28.769a7.816,7.816,0,0,1-.763-.6c-.111-.094-.22-.187-.331-.278a.815.815,0,0,0-.888-.168.713.713,0,0,0-.492.742,1.32,1.32,0,0,0,.369.718,8.249,8.249,0,0,0,4,2.158c.239.053.479.1.719.149l.424.082,1.584,0c.191-.043.382-.081.575-.118a8.609,8.609,0,0,0,1.258-.308,8.833,8.833,0,0,0,4.442-3.273,8.645,8.645,0,0,0,1.4-6.2" fill="#e03224"/>
    <path id="Trazado_37867" data-name="Trazado 37867" d="M19.126,22.832a1.209,1.209,0,0,0,.255.737c.832.876,1.682,1.709,2.331,2.336a.968.968,0,0,0,.578.237l.061,0a.728.728,0,0,0,.684-.479.817.817,0,0,0-.189-.933l-.409-.413c-.457-.463-.929-.941-1.41-1.4a.785.785,0,0,1-.276-.651c.015-.737.012-1.475.009-2.212l0-.759,0-.363c0-.3.006-.6-.008-.905a.917.917,0,0,0-.311-.68.771.771,0,0,0-.607-.173.818.818,0,0,0-.715.888c-.006.551,0,1.1,0,1.654v.707l0,.61c0,.588-.006,1.2.012,1.8" fill="#e03224"/>
  </g>
</svg>
