<svg xmlns="http://www.w3.org/2000/svg" width="24.36" height="19.917" viewBox="0 0 24.36 19.917">
  <g id="Grupo_26183" data-name="Grupo 26183" transform="translate(-323.969 -74)">
    <path id="Trazado_25475" data-name="Trazado 25475" d="M20.351,1.584H2.284A.792.792,0,0,1,2.284,0H20.351a.792.792,0,0,1,0,1.584" transform="translate(324.837 74)" fill="#fff"/>
    <path id="Trazado_25476" data-name="Trazado 25476" d="M23.569,7.369H.791a.792.792,0,0,1,0-1.584H23.569a.792.792,0,0,1,0,1.584" transform="translate(323.969 77.378)" fill="#fff"/>
    <path id="Trazado_25477" data-name="Trazado 25477" d="M20.351,13.158H2.284a.792.792,0,0,1,0-1.584H20.351a.792.792,0,0,1,0,1.584" transform="translate(324.837 80.759)" fill="#fff"/>
  </g>
</svg>
