<svg id="icono-principal-celulares" xmlns="http://www.w3.org/2000/svg" xmlns:xlink="http://www.w3.org/1999/xlink" width="21.341" height="35" viewBox="0 0 21.341 35">
  <defs>
    <clipPath id="clip-path">
      <rect id="Rectángulo_7954" data-name="Rectángulo 7954" width="21.341" height="35" transform="translate(0 0)" fill="#187385"/>
    </clipPath>
  </defs>
  <g id="Grupo_17184" data-name="Grupo 17184" transform="translate(0 0)" clip-path="url(#clip-path)">
    <path id="Trazado_28497" data-name="Trazado 28497" d="M15.834,0H5.516A5.517,5.517,0,0,0,0,5.516V29.493A5.516,5.516,0,0,0,5.516,35H15.834a5.514,5.514,0,0,0,5.507-5.507V5.516A5.516,5.516,0,0,0,15.834,0M19.6,29.493a3.769,3.769,0,0,1-3.767,3.767H5.516A3.776,3.776,0,0,1,1.74,29.493V5.516A3.772,3.772,0,0,1,4.559,1.87,2.682,2.682,0,0,0,7.23,4.28h6.882a2.676,2.676,0,0,0,2.671-2.41A3.772,3.772,0,0,1,19.6,5.516Z" transform="translate(0 0)" fill="#187385"/>
  </g>
  <g id="Grupo_26334" data-name="Grupo 26334" transform="translate(0 0)" clip-path="url(#clip-path)">
    <path id="Trazado_38662" data-name="Trazado 38662" d="M4.559,1.87A2.682,2.682,0,0,0,7.23,4.28h6.882a2.676,2.676,0,0,0,2.671-2.41Z" transform="translate(0 0)" fill="#e03224"/>
  </g>
</svg>
