<svg id="Grupo_26117" data-name="Grupo 26117" xmlns="http://www.w3.org/2000/svg" xmlns:xlink="http://www.w3.org/1999/xlink" width="31.461" height="26.067" viewBox="0 0 31.461 26.067">
  <defs>
    <clipPath id="clip-path">
      <rect id="Rectángulo_13014" data-name="Rectángulo 13014" width="31.461" height="26.067" transform="translate(0 0)" fill="none"/>
    </clipPath>
  </defs>
  <g id="Grupo_26117-2" data-name="Grupo 26117" clip-path="url(#clip-path)">
    <path id="Trazado_37868" data-name="Trazado 37868" d="M28.566,14.85a.75.75,0,0,0-.75.75v6.065a2.906,2.906,0,0,1-2.9,2.9H4.4a2.905,2.905,0,0,1-2.9-2.9V9.673H15.826a.75.75,0,0,0,0-1.5H1.544A2.9,2.9,0,0,1,4.4,5.707H15.826a.75.75,0,0,0,0-1.5H4.4A4.407,4.407,0,0,0,0,8.61V21.665a4.407,4.407,0,0,0,4.4,4.4H24.914a4.408,4.408,0,0,0,4.4-4.4V15.6a.75.75,0,0,0-.75-.75" fill="#187385"/>
    <path id="Trazado_37869" data-name="Trazado 37869" d="M4.437,20.733a.75.75,0,0,0,0,1.5h8.726a.75.75,0,0,0,0-1.5Z" fill="#187385"/>
    <path id="Trazado_37870" data-name="Trazado 37870" d="M17.747,5.089V4.78a2.95,2.95,0,0,1,.148-.346c.319-.561.644-1.119.968-1.677a.9.9,0,0,1,1.1-.433c.348.107.7.214,1.043.329a.22.22,0,0,0,.23-.04,4.762,4.762,0,0,1,1.077-.624.234.234,0,0,0,.153-.192c.072-.348.151-.694.23-1.041A.9.9,0,0,1,23.642,0c.637,0,1.274.009,1.911,0a.934.934,0,0,1,.96.771c.069.349.156.694.229,1.041a.211.211,0,0,0,.14.17,5.007,5.007,0,0,1,1.1.64.2.2,0,0,0,.2.035c.346-.114.694-.222,1.043-.329a.9.9,0,0,1,1.115.43q.486.837.969,1.677a.906.906,0,0,1-.182,1.194c-.264.246-.529.491-.8.731a.209.209,0,0,0-.075.207,5.116,5.116,0,0,1,0,1.261.209.209,0,0,0,.078.2c.265.238.526.48.786.722a.91.91,0,0,1,.183,1.217q-.475.826-.955,1.652a.9.9,0,0,1-1.123.44c-.349-.108-.7-.216-1.043-.329a.2.2,0,0,0-.2.037,4.938,4.938,0,0,1-1.089.633.233.233,0,0,0-.153.191c-.08.37-.161.74-.25,1.108a.876.876,0,0,1-.606.645c-.034.012-.068.026-.1.04h-2.36c-.007-.007-.012-.017-.019-.019a.929.929,0,0,1-.717-.791c-.066-.339-.151-.675-.225-1.013a.189.189,0,0,0-.122-.151,5.052,5.052,0,0,1-1.114-.645.2.2,0,0,0-.2-.035c-.333.11-.67.207-1,.32a.941.941,0,0,1-1.181-.455c-.25-.466-.525-.917-.791-1.374a2.751,2.751,0,0,1-.3-.614V9.3a1.376,1.376,0,0,1,.491-.694c.219-.19.427-.393.643-.586a.188.188,0,0,0,.068-.183,5.286,5.286,0,0,1,0-1.288.189.189,0,0,0-.067-.183c-.214-.189-.417-.39-.633-.576a1.412,1.412,0,0,1-.5-.7M24.6,4.2a3,3,0,1,0,3,2.989,3.008,3.008,0,0,0-3-2.989" fill="#e03224"/>
  </g>
</svg>
