<svg id="icono-principal-paquetes" xmlns="http://www.w3.org/2000/svg" width="34.999" height="34.695" viewBox="0 0 34.999 34.695">
  <path id="Trazado_29728" data-name="Trazado 29728" d="M19.63,21.755h-.035a.563.563,0,0,1,.175.026.662.662,0,0,0-.14-.026" transform="translate(-2.49 -2.764)" fill="#187385"/>
  <path id="Trazado_29729" data-name="Trazado 29729" d="M31.531,26.364l-2.61-4.2a.883.883,0,0,0-.742-.41H17.573a.662.662,0,0,1,.14.026.563.563,0,0,0-.175-.026H7.054a.884.884,0,0,0-.733.393l-2.767,4.2A.871.871,0,0,0,4.279,27.7H6.365v8.092A1.651,1.651,0,0,0,8.023,37.45c.367,0,4.976.009,9.55.009h4.033c2.8,0,5,0,5.281-.009a1.919,1.919,0,0,0,1.859-1.344,1.1,1.1,0,0,0,.035-.236V27.7h2.008a.876.876,0,0,0,.742-1.336M5.9,25.954,7.526,23.5h8.293l-1.763,2.453ZM16.7,35.7c-4.1,0-8.013,0-8.59-.009v-8H14.5a.835.835,0,0,0,.707-.367L16.7,25.264Zm10.335-.044a.208.208,0,0,1-.157.044H18.446V25.648l1.074,1.659a.872.872,0,0,0,.733.393h6.783Zm-6.311-9.707L19.136,23.5H27.69l1.528,2.453Z" transform="translate(-0.433 -2.764)" fill="#187385"/>
  <path id="Trazado_29730" data-name="Trazado 29730" d="M19.77,21.781a.563.563,0,0,0-.175-.026h.035a.662.662,0,0,1,.14.026" transform="translate(-2.49 -2.764)" fill="#187385"/>
  <path id="Trazado_29737" data-name="Trazado 29737" d="M29.819,12.863a.707.707,0,1,1-1.414,0,.707.707,0,0,1,1.414,0" transform="translate(-3.609 -1.545)" fill="#29abe2"/>
  <path id="Trazado_29738" data-name="Trazado 29738" d="M32.93,12.863a.7.7,0,1,1-.707-.7.7.7,0,0,1,.707.7" transform="translate(-4.006 -1.545)" fill="#29abe2"/>
  <path id="Trazado_29739" data-name="Trazado 29739" d="M36.04,12.863a.7.7,0,1,1-.707-.7.7.7,0,0,1,.707.7" transform="translate(-4.4 -1.545)" fill="#29abe2"/>
  <g id="Grupo_20017" data-name="Grupo 20017" transform="translate(-261.84 -3088.516)">
    <path id="Trazado_29731" data-name="Trazado 29731" d="M17.726,13.444a.751.751,0,0,1-.14.009.652.652,0,0,1-.637-.515L15.5,6.286a1.273,1.273,0,1,1,1.274-.279l1.449,6.652a.653.653,0,0,1-.5.786" transform="translate(259.979 3088.03)" fill="#29abe2"/>
    <path id="Trazado_29732" data-name="Trazado 29732" d="M19.04,6.6a.635.635,0,0,1-.55.306.68.68,0,0,1-.358-.1.668.668,0,0,1-.192-.908,2.3,2.3,0,0,0-.69-3.177.662.662,0,0,1-.2-.908.652.652,0,0,1,.908-.192,3.545,3.545,0,0,1,1.571,2.27A3.545,3.545,0,0,1,19.04,6.6" transform="translate(259.686 3088.324)" fill="#29abe2"/>
    <path id="Trazado_29733" data-name="Trazado 29733" d="M21.127,6.979a.648.648,0,0,1-.559.323.719.719,0,0,1-.34-.1.651.651,0,0,1-.218-.9A3.809,3.809,0,0,0,18.883,1.2a.659.659,0,0,1-.175-.908.642.642,0,0,1,.908-.175,5.095,5.095,0,0,1,1.51,6.861" transform="translate(259.477 3088.516)" fill="#29abe2"/>
    <path id="Trazado_29734" data-name="Trazado 29734" d="M14.682,7.543a.647.647,0,0,1-.55.3.68.68,0,0,1-.358-.1,3.621,3.621,0,0,1-1.082-4.993.656.656,0,0,1,1.1.716,2.3,2.3,0,0,0,.69,3.177.66.66,0,0,1,.2.908" transform="translate(260.301 3088.205)" fill="#29abe2"/>
    <path id="Trazado_29735" data-name="Trazado 29735" d="M12.808,8.8a.669.669,0,0,1-.917.166A5.111,5.111,0,0,1,10.416,2.1a.644.644,0,0,1,.9-.218.659.659,0,0,1,.218.9,3.794,3.794,0,0,0,1.1,5.115.657.657,0,0,1,.175.908" transform="translate(260.611 3088.289)" fill="#29abe2"/>
    <path id="Trazado_29736" data-name="Trazado 29736" d="M31.338,6.945c-3.736,0-6.783,2.357-6.783,5.255a4.986,4.986,0,0,0,2.706,4.2l-.515,1a.879.879,0,0,0,.122.969.87.87,0,0,0,.655.3.75.75,0,0,0,.279-.044l3.483-1.161h.052c3.745,0,6.783-2.366,6.783-5.264s-3.038-5.255-6.783-5.255m0,8.773a6.6,6.6,0,0,1-2.505-.471A3.537,3.537,0,0,1,26.3,12.2c0-1.938,2.261-3.509,5.037-3.509s5.037,1.571,5.037,3.509-2.261,3.518-5.037,3.518" transform="translate(258.719 3087.634)" fill="#29abe2"/>
    <path id="Trazado_29740" data-name="Trazado 29740" d="M9.737,16.122c-.009.044-.009.1-.017.14a2.824,2.824,0,0,1-.113.288,1.971,1.971,0,0,1-.471.532,3.576,3.576,0,0,1-1.187.707,1.717,1.717,0,0,1-1.126.009,5.326,5.326,0,0,1-1.082-.506,12.457,12.457,0,0,1-2.112-1.519,12.388,12.388,0,0,1-1.449-1.5,12.077,12.077,0,0,1-.829-1.187,11.836,11.836,0,0,1-.786-1.467,7.4,7.4,0,0,1-.5-1.4A1.88,1.88,0,0,1,0,9.636a1.473,1.473,0,0,1,.288-.751,2.92,2.92,0,0,1,.9-.829,5.058,5.058,0,0,1,.559-.314A2.026,2.026,0,0,1,2.2,7.6a.605.605,0,0,1,.471.087,1.957,1.957,0,0,1,.655.655,6.8,6.8,0,0,1,.786,1.624.949.949,0,0,1,.035.227.343.343,0,0,1-.157.3,1.113,1.113,0,0,1-.218.131A3.525,3.525,0,0,1,3,10.9a2.468,2.468,0,0,0-.358.122.618.618,0,0,0-.288.707,4.979,4.979,0,0,0,.716,1.3A10.173,10.173,0,0,0,4.09,14.219a9.358,9.358,0,0,0,1.065.882,2.067,2.067,0,0,0,.288.192.707.707,0,0,0,.681-.079,1.268,1.268,0,0,0,.323-.358c.14-.2.279-.4.428-.594a1.3,1.3,0,0,1,.244-.244.5.5,0,0,1,.55,0,5.892,5.892,0,0,1,.9.7c.288.262.559.532.829.812a2.938,2.938,0,0,1,.253.323.583.583,0,0,1,.087.271" transform="translate(261.84 3087.553)" fill="#29abe2"/>
  </g>
</svg>
