<?xml version="1.0" encoding="utf-8"?>
<svg version="1.1" id="Capa_1" xmlns="http://www.w3.org/2000/svg" xmlns:xlink="http://www.w3.org/1999/xlink" x="0px" y="0px"
	 viewBox="0 0 20.6 23.2" style="enable-background:new 0 0 20.6 23.2;" xml:space="preserve">
<style type="text/css">
	.st0{clip-path:url(#SVGID_2_);}
	.st1{fill:#DA291C;stroke:#DA291C;stroke-width:0.5;}
</style>
<g id="icono-principal-arma-tu-paquete" transform="translate(0.444 0.367)">
	<g>
		<defs>
			<rect id="SVGID_1_" x="-0.4" y="-0.4" width="20.6" height="23.2"/>
		</defs>
		<clipPath id="SVGID_2_">
			<use xlink:href="#SVGID_1_"  style="overflow:visible;"/>
		</clipPath>
		<g id="Enmascarar_grupo_22160" class="st0">
			<path id="Trazado_35923" class="st1" d="M18.9,6.3c0-0.3-0.2-0.6-0.4-0.7c-0.2-0.3-0.5-0.5-0.7-0.7L11.3,1
				c-0.9-0.5-1.9-0.5-2.8,0l-3,1.8C5.3,2.8,5.2,2.9,5,3L2,4.9C1.7,5,1.4,5.3,1.2,5.6C0.9,5.7,0.8,6,0.8,6.3C0.6,6.6,0.6,7,0.6,7.4
				V15c0,1,0.5,2,1.4,2.5l6.5,3.8c0.3,0.2,0.6,0.3,0.9,0.3c0.3,0.2,0.6,0.2,0.9,0c0.3,0,0.7-0.2,0.9-0.3l6.5-3.8
				c0.9-0.5,1.4-1.5,1.4-2.5V7.4C19.2,7,19.1,6.6,18.9,6.3 M9.1,2c0.2-0.1,0.3-0.1,0.5-0.1h0c0.2,0,0.4,0.1,0.5,0.2l6.9,4.1
				l-2.6,1.6l-2,1.3l-2.7,1.6L2.4,6.2L9.1,2z M2.2,16.3c-0.3-0.2-0.5-0.6-0.5-0.9V7.3L9,11.7v8.7L2.2,16.3z M17.6,16.4l-7,4.1v-8.8
				l7.5-4.5v8.3C18.1,15.8,17.9,16.2,17.6,16.4"/>
			<path id="Trazado_35924" class="st1" d="M7.4,3.6L14,7.4l-2.1,1.3L5.4,4.8L7.4,3.6z"/>
		</g>
	</g>
</g>
</svg>
