<svg xmlns="http://www.w3.org/2000/svg" xmlns:xlink="http://www.w3.org/1999/xlink" width="47" height="38.847" viewBox="0 0 47 38.847">
  <defs>
    <clipPath id="clip-path">
      <rect id="Rectángulo_11534" data-name="Rectángulo 11534" width="20.625" height="23.216" transform="translate(-0.444 -0.367)" fill="#404040" stroke="#404040" stroke-width="0.5"/>
    </clipPath>
  </defs>
  <g id="Grupo_25764" data-name="Grupo 25764" transform="translate(1744 15762.247)">
    <g id="Grupo_25758" data-name="Grupo 25758" transform="translate(-2557 4010.602)">
      <g id="Grupo_24568" data-name="Grupo 24568" transform="translate(231 -26434.674)">
        <text id="Consumos" transform="translate(582 6697.673)" fill="#404040" font-size="12" font-family="Roboto-Bold, Roboto" font-weight="700" letter-spacing="0.04em"><tspan x="0" y="0">Pedidos</tspan></text>
      </g>
    </g>
    <g id="icono-principal-arma-tu-paquete" transform="translate(-1730.368 -15761.88)">
      <g id="Enmascarar_grupo_22160" data-name="Enmascarar grupo 22160" clip-path="url(#clip-path)">
        <path id="Trazado_35923" data-name="Trazado 35923" d="M18.391,5.635a.886.886,0,0,0-.425-.734,2.79,2.79,0,0,0-.739-.672L10.709.385a2.727,2.727,0,0,0-2.794,0L4.911,2.157a.894.894,0,0,0-.425.251L1.4,4.229a2.815,2.815,0,0,0-.751.69.888.888,0,0,0-.422.742A2.924,2.924,0,0,0,0,6.727v7.687a2.91,2.91,0,0,0,1.4,2.5l6.519,3.843a2.717,2.717,0,0,0,.945.324.81.81,0,0,0,.9,0,2.7,2.7,0,0,0,.945-.324l6.519-3.843a2.907,2.907,0,0,0,1.4-2.5V6.727a2.936,2.936,0,0,0-.233-1.091M8.536,1.413a1.047,1.047,0,0,1,.536-.149H9.067a1.055,1.055,0,0,1,.542.151L16.539,5.5,13.9,7.075,11.851,8.367,9.2,9.95,1.847,5.559ZM1.606,15.675a1.089,1.089,0,0,1-.525-.937V6.659l7.343,4.383V19.7Zm15.406.055-6.975,4.112V11l7.511-4.486v8.262a1.114,1.114,0,0,1-.536.955" transform="translate(0.556 0.633)" fill="#404040" stroke="#404040" stroke-width="0.5"/>
        <path id="Trazado_35924" data-name="Trazado 35924" d="M13.339,6.7l6.543,3.845L17.83,11.838,11.316,7.949Z" transform="translate(-5.912 -3.106)" fill="#404040" stroke="#404040" stroke-width="0.5"/>
      </g>
    </g>
  </g>
</svg>
