<svg xmlns="http://www.w3.org/2000/svg" xmlns:xlink="http://www.w3.org/1999/xlink" width="26.998" height="27.002" viewBox="0 0 26.998 27.002">
  <defs>
    <clipPath id="clip-path">
      <rect id="Rectángulo_13015" data-name="Rectángulo 13015" width="26.998" height="27.002" transform="translate(0 0)" fill="none"/>
    </clipPath>
  </defs>
  <g id="Grupo_26127" data-name="Grupo 26127" transform="translate(0 0)">
    <g id="Grupo_26126" data-name="Grupo 26126" clip-path="url(#clip-path)">
      <path id="Trazado_38587" data-name="Trazado 38587" d="M25.916,15.138a.76.76,0,0,0-.76.76v8.189a1.4,1.4,0,0,1-1.4,1.4H3.523a1.4,1.4,0,0,1-1.395-1.4V15.7a.76.76,0,1,0-1.52,0v8.389A2.918,2.918,0,0,0,3.523,27H23.76a2.918,2.918,0,0,0,2.916-2.915V15.9a.76.76,0,0,0-.76-.76" fill="#187385"/>
      <path id="Trazado_38588" data-name="Trazado 38588" d="M9.263,4.263a.76.76,0,0,0,.76-.76V2.93a1.412,1.412,0,0,1,1.41-1.41h4.379a1.411,1.411,0,0,1,1.409,1.41V3.5a.76.76,0,1,0,1.52,0V2.93A2.933,2.933,0,0,0,15.812,0H11.433A2.934,2.934,0,0,0,8.5,2.93V3.5a.76.76,0,0,0,.76.76" fill="#187385"/>
      <path id="Trazado_38589" data-name="Trazado 38589" d="M24.078,5.03H2.92A2.923,2.923,0,0,0,0,7.949v3.16a2.919,2.919,0,0,0,2.184,2.826l8.807,2.291v-1.4a1.2,1.2,0,0,1,.032-.158l-8.456-2.2a1.4,1.4,0,0,1-1.048-1.356V7.949a1.4,1.4,0,0,1,1.4-1.4H24.078a1.4,1.4,0,0,1,1.4,1.4v3.17a1.4,1.4,0,0,1-1.04,1.353l-8.029,2.137a1.256,1.256,0,0,1,.043.213V16.17l8.377-2.229A2.925,2.925,0,0,0,27,11.119V7.949a2.923,2.923,0,0,0-2.92-2.919" fill="#187385"/>
      <path id="Trazado_38590" data-name="Trazado 38590" d="M15.146,13.515H12.3a1.308,1.308,0,0,0-1.306,1.307V17.67A1.308,1.308,0,0,0,12.3,18.976h2.848a1.308,1.308,0,0,0,1.307-1.306V14.822a1.308,1.308,0,0,0-1.307-1.307m-.213,3.395a.547.547,0,0,1-.547.547H13.058a.547.547,0,0,1-.547-.547V15.582a.547.547,0,0,1,.547-.547h1.328a.547.547,0,0,1,.547.547Z" fill="#da291c"/>
    </g>
  </g>
</svg>
