<svg id="icono-users-ppal" xmlns="http://www.w3.org/2000/svg" width="24" height="20.001" viewBox="0 0 24 20.001">
  <path id="Trazado_28404" data-name="Trazado 28404" d="M243.464,602.75h-8a5.006,5.006,0,0,0-5,5v2a1,1,0,0,0,2,0v-2a3,3,0,0,1,3-3h8a3,3,0,0,1,3,3v2a1,1,0,0,0,2,0v-2a5.006,5.006,0,0,0-5-5" transform="translate(-230.464 -590.75)" fill="#187385"/>
  <path id="Trazado_28405" data-name="Trazado 28405" d="M239.464,600.75a5,5,0,1,0-5-5,5.006,5.006,0,0,0,5,5m0-8a3,3,0,1,1-3,3,3,3,0,0,1,3-3" transform="translate(-230.464 -590.75)" fill="#187385"/>
  <path id="Trazado_28406" data-name="Trazado 28406" d="M250.714,602.914a1,1,0,0,0-.5,1.936,3,3,0,0,1,2.25,2.9v2a1,1,0,0,0,1,1h0a1,1,0,0,0,1-1v-2a5,5,0,0,0-3.75-4.837" transform="translate(-230.464 -590.75)" fill="#187385"/>
  <path id="Trazado_28407" data-name="Trazado 28407" d="M246.715,590.911a1,1,0,1,0-.5,1.938,3,3,0,0,1,0,5.812,1,1,0,0,0,.248,1.969h0a1.041,1.041,0,0,0,.249-.031,5,5,0,0,0,0-9.688" transform="translate(-230.464 -590.75)" fill="#187385"/>
</svg>
