<svg xmlns="http://www.w3.org/2000/svg" width="18" height="20" viewBox="0 0 18 20">
  <g id="icono-user-ppal" transform="translate(0)">
    <path id="Trazado_28402" data-name="Trazado 28402" d="M206.016,610.859a1,1,0,0,1-1-1v-2a3,3,0,0,0-3-3h-8a3,3,0,0,0-3,3v2a1,1,0,0,1-2,0v-2a5.006,5.006,0,0,1,5-5h8a5.006,5.006,0,0,1,5,5v2a1,1,0,0,1-1,1" transform="translate(-189.016 -590.859)" fill="#187385"/>
    <path id="Trazado_28403" data-name="Trazado 28403" d="M198.016,600.859a5,5,0,1,1,5-5,5,5,0,0,1-5,5m0-8a3,3,0,1,0,3,3,3,3,0,0,0-3-3" transform="translate(-189.016 -590.859)" fill="#187385"/>
  </g>
</svg>
