<?xml version="1.0" encoding="UTF-8"?>
<svg width="82px" height="30px" viewBox="0 0 82 30" version="1.1" xmlns="http://www.w3.org/2000/svg" xmlns:xlink="http://www.w3.org/1999/xlink">
    <title>Group 13</title>
    <defs>
        <polygon id="path-1" points="0 29.8148929 81.9692052 29.8148929 81.9692052 -0.000107142857 0 -0.000107142857"></polygon>
    </defs>
    <g id="Page-1" stroke="none" stroke-width="1" fill="none" fill-rule="evenodd">
        <g id="Desktop-HD-Copy-12" transform="translate(-61.000000, -15.000000)">
            <g id="Group-13" transform="translate(61.000000, 15.000000)">
                <path d="M61.9428,25.7597857 C59.5075074,25.7597857 57.5337782,23.7908571 57.5337782,21.3622857 C57.5337782,18.9333571 59.5075074,16.9644286 61.9428,16.9644286 C64.3780926,16.9644286 66.3518218,18.9333571 66.3518218,21.3622857 C66.3518218,23.7908571 64.3780926,25.7597857 61.9428,25.7597857 M61.9220314,13.0362143 C57.3246603,13.0362143 53.597062,16.7537143 53.597062,21.3394286 C53.597062,25.9255 57.3246603,29.643 61.9220314,29.643 C66.5201188,29.643 70.247359,25.9255 70.247359,21.3394286 C70.247359,16.7537143 66.5201188,13.0362143 61.9220314,13.0362143" id="Fill-1" fill="#FEFEFE"></path>
                <path d="M53.2412035,13.709 L53.2412035,17.5750714 C50.1309328,17.5750714 49.3263301,18.5686429 48.756269,19.639 C48.4368629,20.2415 48.223448,21.0686429 48.223448,22.3207857 L48.223448,29.7904286 L44.0611424,29.7904286 L44.0607843,14.3507857 L48.1464611,14.3507857 L48.1468192,15.9947143 C49.6324873,14.0993571 51.5424786,13.644 53.2412035,13.709" id="Fill-3" fill="#FEFEFE"></path>
                <path d="M37.4025275,21.7164643 C37.1447109,21.8786071 36.8847459,22.0096786 36.6219162,22.1096786 C36.3590865,22.2100357 35.9988594,22.3028929 35.5405188,22.3886071 L34.6231214,22.5600357 C33.7640908,22.7128929 33.1467633,22.8989643 32.771855,23.11825 C32.1376978,23.4896786 31.8204402,24.0668214 31.8204402,24.8486071 C31.8204402,25.5443214 32.0141607,26.0471786 32.4016017,26.3568214 C32.7890428,26.6668214 33.2602742,26.8218214 33.814938,26.8218214 C34.6950952,26.8218214 35.5061432,26.5643214 36.2473659,26.0496786 C36.9893048,25.5346786 37.3742393,24.5961071 37.4025275,23.2321786 L37.4025275,21.7164643 Z M34.940021,19.8143214 C35.6898376,19.7193214 36.2258812,19.6000357 36.54851,19.4571786 C37.1275231,19.2089643 37.4172087,18.8228929 37.4172087,18.2986071 C37.4172087,17.6600357 37.1952,17.2186071 36.7508245,16.9761071 C36.306807,16.7325357 35.6547459,16.6111071 34.7953572,16.6111071 C33.8306934,16.6111071 33.1478376,16.8493214 32.7467895,17.3261071 C32.4599686,17.6789643 32.2691127,18.1553929 32.1735057,18.7561071 L28.2872786,18.7561071 C28.3721432,17.3928929 28.7506323,16.2728929 29.4227459,15.39575 C30.4919686,14.0228929 32.3278376,13.3361071 34.9303528,13.3361071 C36.6237066,13.3361071 38.1283528,13.6746786 39.4439336,14.3518214 C40.7591563,15.0286071 41.4169467,16.3061071 41.4169467,18.1843214 L41.4169467,25.3346786 C41.4169467,25.8303929 41.4094271,29.6289643 41.4094271,29.6289643 L37.4028856,29.6993214 C37.4028856,29.3561071 37.4028856,28.6200357 37.4025275,28.2693214 C36.2162131,29.3593214 34.430117,29.7821786 32.6400821,29.7821786 C31.2371301,29.7821786 30.0787459,29.3793214 29.1642131,28.5736071 C28.2493223,27.7678929 27.792414,26.6264643 27.792414,25.1486071 C27.792414,23.2321786 28.5282655,21.8450357 29.9992524,20.9871786 C30.8063616,20.5200357 31.992676,20.1864643 33.5589118,19.9861071 L34.940021,19.8143214 Z" id="Fill-5" fill="#FEFEFE"></path>
                <mask id="mask-2" fill="white">
                    <use xlink:href="#path-1"></use>
                </mask>
                <g id="Clip-8"></g>
                <polygon id="Fill-7" fill="#FEFEFE" mask="url(#mask-2)" points="72.7221834 21.2106071 81.9688472 21.2106071 81.9688472 17.6970357 72.7221834 17.6970357"></polygon>
                <polygon id="Fill-9" fill="#FEFEFE" mask="url(#mask-2)" points="70.8538367 13.9259643 68.3200725 11.48525 76.8845965 2.63953571 79.4183607 5.07989286"></polygon>
                <polygon id="Fill-10" fill="#FEFEFE" mask="url(#mask-2)" points="60.4966638 9.22275 64.019083 9.22275 64.019083 0.00025 60.4966638 0.00025"></polygon>
                <path d="M10.0581057,25.8260714 C6.71293537,25.8260714 4.00120611,23.0767857 4.00120611,19.6853571 C4.00120611,16.2935714 6.71293537,13.5439286 10.0581057,13.5439286 C12.5327869,13.5439286 14.6576253,15.0507143 15.5975817,17.2071429 L19.831145,17.2071429 C18.7629965,12.7385714 14.7940533,9.41928571 10.0581057,9.41928571 C4.50287424,9.41928571 3.58078603e-05,13.985 3.58078603e-05,19.6167857 C3.58078603e-05,25.2492857 4.50287424,29.815 10.0581057,29.815 C14.6443764,29.815 18.5109092,26.7014286 19.7208568,22.4460714 L15.4629441,22.4460714 C14.4653371,24.4496429 12.4224987,25.8260714 10.0581057,25.8260714" id="Fill-11" fill="#FEFEFE" mask="url(#mask-2)"></path>
                <polygon id="Fill-12" fill="#FEFEFE" mask="url(#mask-2)" points="21.5667162 29.7398929 25.629476 29.7398929 25.629476 9.44060714 21.5667162 9.44060714"></polygon>
            </g>
        </g>
    </g>
</svg>